<?xml version="1.0" encoding="UTF-8"?>
<svg id="Camada_1" xmlns="http://www.w3.org/2000/svg" version="1.1" viewBox="0 0 200 200">
  <!-- Generator: Adobe Illustrator 29.8.6, SVG Export Plug-In . SVG Version: 2.1.1 Build 1)  -->
  <defs>
    <style>
      .st0, .st1 {
        fill: #fff;
      }

      .st1 {
        fill-rule: evenodd;
      }
    </style>
  </defs>
  <path class="st0" d="M100,2.32C46.06,2.32,2.32,46.06,2.32,100s43.74,97.68,97.68,97.68,97.68-43.74,97.68-97.68S153.94,2.32,100,2.32ZM72.25,150.75h-20.96v-67.64h20.96v67.64ZM61.66,74.25c-6.86,0-12.38-5.58-12.38-12.49s5.55-12.49,12.38-12.49,12.38,5.58,12.38,12.49-5.55,12.49-12.38,12.49ZM150.75,150.75h-20.85v-35.51c0-9.75-3.69-15.19-11.4-15.19-8.39,0-12.77,5.66-12.77,15.19v35.51h-20.09v-67.64h20.09v9.11s6.05-11.19,20.4-11.19,24.62,8.77,24.62,26.88v42.85Z"/>
  <path class="st1" d="M-91,115.64h-7.68v-13.09c0-3.59-1.36-5.6-4.2-5.6-3.09,0-4.7,2.09-4.7,5.6v13.09h-7.41v-24.93h7.41v3.36s2.23-4.13,7.52-4.13,9.07,3.23,9.07,9.91v15.8h0ZM-123.83,87.45c-2.53,0-4.56-2.06-4.56-4.6s2.04-4.6,4.56-4.6,4.56,2.06,4.56,4.6-2.04,4.6-4.56,4.6ZM-127.66,115.64h7.72v-24.93h-7.72v24.93Z"/>
</svg>